<mxfile host="app.diagrams.net" agent="Mozilla/5.0 (Windows NT 10.0; Win64; x64) AppleWebKit/537.36 (KHTML, like Gecko) Chrome/140.0.0.0 Safari/537.36" version="28.2.4">
  <diagram name="Trang-1" id="DWjevDyN9XOkH9Xw4wUZ">
    <mxGraphModel dx="1869" dy="527" grid="1" gridSize="10" guides="1" tooltips="1" connect="1" arrows="1" fold="1" page="1" pageScale="1" pageWidth="827" pageHeight="1169" math="0" shadow="0">
      <root>
        <mxCell id="0" />
        <mxCell id="1" parent="0" />
        <mxCell id="0QhpKwTZ5oaNK3hQEiUY-1" value="" style="image;html=1;image=img/lib/clip_art/networking/Wireless_Router_N_128x128.png" vertex="1" parent="1">
          <mxGeometry x="374" y="10" width="80" height="120" as="geometry" />
        </mxCell>
        <mxCell id="0QhpKwTZ5oaNK3hQEiUY-2" value="" style="verticalLabelPosition=bottom;html=1;verticalAlign=top;align=center;strokeColor=none;fillColor=#00BEF2;shape=mxgraph.azure.laptop;pointerEvents=1;" vertex="1" parent="1">
          <mxGeometry x="140" y="250" width="90" height="50" as="geometry" />
        </mxCell>
        <mxCell id="0QhpKwTZ5oaNK3hQEiUY-3" value="" style="verticalLabelPosition=bottom;html=1;verticalAlign=top;align=center;strokeColor=none;fillColor=#00BEF2;shape=mxgraph.azure.mobile;pointerEvents=1;" vertex="1" parent="1">
          <mxGeometry x="310" y="250" width="35" height="50" as="geometry" />
        </mxCell>
        <mxCell id="0QhpKwTZ5oaNK3hQEiUY-4" value="" style="verticalLabelPosition=bottom;sketch=0;aspect=fixed;html=1;verticalAlign=top;strokeColor=none;align=center;outlineConnect=0;shape=mxgraph.citrix.tablet_2;" vertex="1" parent="1">
          <mxGeometry x="420" y="250" width="82" height="86" as="geometry" />
        </mxCell>
        <mxCell id="0QhpKwTZ5oaNK3hQEiUY-5" value="" style="verticalLabelPosition=bottom;aspect=fixed;html=1;shape=mxgraph.salesforce.iot2;fillColorStyles=fillColor2,fillColor3;fillColor2=#7f2443;fillColor3=#ffffff;fillColor=none;strokeColor=none;" vertex="1" parent="1">
          <mxGeometry x="600" y="263" width="60" height="60" as="geometry" />
        </mxCell>
        <mxCell id="0QhpKwTZ5oaNK3hQEiUY-6" value="" style="endArrow=none;dashed=1;html=1;dashPattern=1 3;strokeWidth=2;rounded=0;" edge="1" parent="1" source="0QhpKwTZ5oaNK3hQEiUY-2" target="0QhpKwTZ5oaNK3hQEiUY-1">
          <mxGeometry width="50" height="50" relative="1" as="geometry">
            <mxPoint x="390" y="300" as="sourcePoint" />
            <mxPoint x="440" y="250" as="targetPoint" />
          </mxGeometry>
        </mxCell>
        <mxCell id="0QhpKwTZ5oaNK3hQEiUY-7" value="" style="endArrow=none;dashed=1;html=1;dashPattern=1 3;strokeWidth=2;rounded=0;" edge="1" parent="1" source="0QhpKwTZ5oaNK3hQEiUY-3" target="0QhpKwTZ5oaNK3hQEiUY-1">
          <mxGeometry width="50" height="50" relative="1" as="geometry">
            <mxPoint x="390" y="300" as="sourcePoint" />
            <mxPoint x="440" y="250" as="targetPoint" />
          </mxGeometry>
        </mxCell>
        <mxCell id="0QhpKwTZ5oaNK3hQEiUY-8" value="" style="endArrow=none;dashed=1;html=1;dashPattern=1 3;strokeWidth=2;rounded=0;" edge="1" parent="1" source="0QhpKwTZ5oaNK3hQEiUY-4" target="0QhpKwTZ5oaNK3hQEiUY-1">
          <mxGeometry width="50" height="50" relative="1" as="geometry">
            <mxPoint x="348" y="260" as="sourcePoint" />
            <mxPoint x="399" y="140" as="targetPoint" />
          </mxGeometry>
        </mxCell>
        <mxCell id="0QhpKwTZ5oaNK3hQEiUY-9" value="" style="endArrow=none;dashed=1;html=1;dashPattern=1 3;strokeWidth=2;rounded=0;entryX=0.98;entryY=0.873;entryDx=0;entryDy=0;entryPerimeter=0;exitX=0.26;exitY=0.09;exitDx=0;exitDy=0;exitPerimeter=0;" edge="1" parent="1" source="0QhpKwTZ5oaNK3hQEiUY-5" target="0QhpKwTZ5oaNK3hQEiUY-1">
          <mxGeometry width="50" height="50" relative="1" as="geometry">
            <mxPoint x="462" y="260" as="sourcePoint" />
            <mxPoint x="437" y="140" as="targetPoint" />
          </mxGeometry>
        </mxCell>
        <mxCell id="0QhpKwTZ5oaNK3hQEiUY-10" value="&lt;div&gt;Trong mạng Wi-Fi, dữ liệu được truyền tải qua sóng vô tuyến thay vì dây cáp vật lý. Quy trình cơ bản diễn ra như sau:&lt;/div&gt;&lt;div&gt;&lt;br&gt;&lt;/div&gt;&lt;div&gt;Thiết bị gửi dữ liệu&lt;/div&gt;&lt;div&gt;Khi bạn dùng máy tính, điện thoại hay IoT để truy cập Internet, dữ liệu (ví dụ: một yêu cầu mở website) sẽ được chuyển thành tín hiệu số.&lt;/div&gt;&lt;div&gt;&lt;br&gt;&lt;/div&gt;&lt;div&gt;Chuyển thành sóng vô tuyến&lt;/div&gt;&lt;div&gt;Card mạng Wi-Fi của thiết bị biến tín hiệu số này thành sóng vô tuyến theo chuẩn IEEE 802.11 (2.4 GHz hoặc 5 GHz) rồi phát ra.&lt;/div&gt;&lt;div&gt;&lt;br&gt;&lt;/div&gt;&lt;div&gt;Router Wi-Fi nhận và xử lý&lt;/div&gt;&lt;div&gt;Router Wi-Fi bắt được sóng, giải mã tín hiệu, sau đó chuyển đổi thành dữ liệu số để truyền qua modem và đi ra Internet.&lt;/div&gt;&lt;div&gt;&lt;br&gt;&lt;/div&gt;&lt;div&gt;Truyền tải qua Internet&lt;/div&gt;&lt;div&gt;Gói tin được định tuyến đến máy chủ đích (ví dụ: máy chủ của Google khi bạn tìm kiếm).&lt;/div&gt;&lt;div&gt;&lt;br&gt;&lt;/div&gt;&lt;div&gt;Máy chủ trả lời&lt;/div&gt;&lt;div&gt;Máy chủ gửi lại dữ liệu theo đường ngược lại → về router → router phát sóng vô tuyến đến thiết bị.&lt;/div&gt;&lt;div&gt;&lt;br&gt;&lt;/div&gt;&lt;div&gt;Thiết bị nhận dữ liệu&lt;/div&gt;&lt;div&gt;Thiết bị bắt sóng, giải mã thành thông tin hiển thị (trang web, video, âm thanh,…).&lt;/div&gt;" style="text;html=1;align=left;verticalAlign=middle;resizable=0;points=[];autosize=1;strokeColor=none;fillColor=none;fontSize=15;" vertex="1" parent="1">
          <mxGeometry x="-50" y="335" width="940" height="360" as="geometry" />
        </mxCell>
      </root>
    </mxGraphModel>
  </diagram>
</mxfile>
